<mxfile host="app.diagrams.net" modified="2021-02-01T03:19:45.590Z" agent="5.0 (Windows NT 6.3; Win64; x64) AppleWebKit/537.36 (KHTML, like Gecko) Chrome/88.0.4324.104 Safari/537.36" etag="QY0UD_iRfylyv-HmtVMS" version="14.2.9" type="github">
  <diagram id="MUomAsYn7oUuMWxHO66I" name="Page-1">
    <mxGraphModel dx="868" dy="450" grid="1" gridSize="10" guides="1" tooltips="1" connect="1" arrows="1" fold="1" page="1" pageScale="1" pageWidth="850" pageHeight="1100" math="0" shadow="0">
      <root>
        <mxCell id="0" />
        <mxCell id="1" parent="0" />
        <mxCell id="j_dRQpxuna9h_a6CvXSF-1" value="onClick" style="rounded=0;whiteSpace=wrap;html=1;fillColor=#d5e8d4;strokeColor=#82b366;" vertex="1" parent="1">
          <mxGeometry x="40" y="40" width="160" height="60" as="geometry" />
        </mxCell>
        <mxCell id="j_dRQpxuna9h_a6CvXSF-2" value="number: age = input" style="rounded=0;whiteSpace=wrap;html=1;fillColor=#dae8fc;strokeColor=#6c8ebf;" vertex="1" parent="1">
          <mxGeometry x="280" y="40" width="160" height="60" as="geometry" />
        </mxCell>
        <mxCell id="j_dRQpxuna9h_a6CvXSF-3" value="age &amp;gt; 20" style="rhombus;whiteSpace=wrap;html=1;fillColor=#dae8fc;strokeColor=#6c8ebf;" vertex="1" parent="1">
          <mxGeometry x="300" y="160" width="120" height="120" as="geometry" />
        </mxCell>
        <mxCell id="j_dRQpxuna9h_a6CvXSF-4" value="render &#39;Welcome to our online store.&#39;" style="rounded=0;whiteSpace=wrap;html=1;fillColor=#d5e8d4;strokeColor=#82b366;" vertex="1" parent="1">
          <mxGeometry x="470" y="340" width="160" height="60" as="geometry" />
        </mxCell>
        <mxCell id="j_dRQpxuna9h_a6CvXSF-5" value="render &#39;You must be 21 or older to ender.&#39;" style="rounded=0;whiteSpace=wrap;html=1;fillColor=#d5e8d4;strokeColor=#82b366;" vertex="1" parent="1">
          <mxGeometry x="280" y="340" width="160" height="60" as="geometry" />
        </mxCell>
        <mxCell id="j_dRQpxuna9h_a6CvXSF-6" value="" style="endArrow=classic;html=1;exitX=1;exitY=0.5;exitDx=0;exitDy=0;entryX=0;entryY=0.5;entryDx=0;entryDy=0;" edge="1" parent="1" source="j_dRQpxuna9h_a6CvXSF-1" target="j_dRQpxuna9h_a6CvXSF-2">
          <mxGeometry width="50" height="50" relative="1" as="geometry">
            <mxPoint x="200" y="100" as="sourcePoint" />
            <mxPoint x="250" y="50" as="targetPoint" />
          </mxGeometry>
        </mxCell>
        <mxCell id="j_dRQpxuna9h_a6CvXSF-7" value="" style="endArrow=classic;html=1;exitX=0.5;exitY=1;exitDx=0;exitDy=0;entryX=0.5;entryY=0;entryDx=0;entryDy=0;" edge="1" parent="1" source="j_dRQpxuna9h_a6CvXSF-2" target="j_dRQpxuna9h_a6CvXSF-3">
          <mxGeometry width="50" height="50" relative="1" as="geometry">
            <mxPoint x="330" y="160" as="sourcePoint" />
            <mxPoint x="380" y="110" as="targetPoint" />
          </mxGeometry>
        </mxCell>
        <mxCell id="j_dRQpxuna9h_a6CvXSF-8" value="" style="endArrow=classic;html=1;exitX=0.5;exitY=1;exitDx=0;exitDy=0;entryX=0.5;entryY=0;entryDx=0;entryDy=0;" edge="1" parent="1" source="j_dRQpxuna9h_a6CvXSF-3" target="j_dRQpxuna9h_a6CvXSF-5">
          <mxGeometry width="50" height="50" relative="1" as="geometry">
            <mxPoint x="340" y="330" as="sourcePoint" />
            <mxPoint x="390" y="280" as="targetPoint" />
          </mxGeometry>
        </mxCell>
        <mxCell id="j_dRQpxuna9h_a6CvXSF-9" value="" style="endArrow=classic;html=1;exitX=1;exitY=0.5;exitDx=0;exitDy=0;entryX=0.5;entryY=0;entryDx=0;entryDy=0;" edge="1" parent="1" source="j_dRQpxuna9h_a6CvXSF-3" target="j_dRQpxuna9h_a6CvXSF-4">
          <mxGeometry width="50" height="50" relative="1" as="geometry">
            <mxPoint x="490" y="270" as="sourcePoint" />
            <mxPoint x="540" y="220" as="targetPoint" />
            <Array as="points">
              <mxPoint x="550" y="220" />
            </Array>
          </mxGeometry>
        </mxCell>
      </root>
    </mxGraphModel>
  </diagram>
</mxfile>
